# xmcd
#
# Track frame offsets: 
#        150
#        51338
#        78979
#        117081
#        126656
#        132338
#        139749
#        164839
#        187874
#        213961
#        234819
#        274850
#        286507
#        326751
#
# Disc length: 4650 seconds
#
# Revision: 7
# Processed by: cddbd v1.5.2PL0 Copyright (c) Steve Scherf et al.
# Submitted via: ExactAudioCopy v1.0b3
#
DISCID=cd12280e
DTITLE=Frédéric Chopin - Collection Historique - Solomon et Dinu Lipat
DTITLE=ti
DYEAR=1956
DGENRE=Romantique
TTITLE0=Fantaisie en fa mineur op. 49 (Solomon 1956)
TTITLE1=Nocturne en si bémol mineur op. 9 n° 1 (Solomon 1956)
TTITLE2=Scherzo n° 2 en si bémol mineur op. 31 'La Méditation' (Solomo
TTITLE2=n 1956)
TTITLE3=Étude en fa mineur op. 10 n° 9 - allegro molto agitato (Solomo
TTITLE3=n 1942-1943)
TTITLE4=Étude en fa mineur op. 25 n° 2 - presto (Solomon 1942-1943)
TTITLE5=Étude en fa majeur op. 25 n° 3 - allegro (Solomon 1942-1943)
TTITLE6=Nocturne en ré bémol majeur op. 27 n° 2 (Solomon 1942-1943)
TTITLE7=Berceuse en ré bémol majeur op. 57 (Solomon 1942-1943)
TTITLE8=Nocturne en ré bémol majeur op. 27 n° 2 (Dinu Lipatti 1947)
TTITLE9=Grande Valse brillante en la bémol majeur op. 34 n° 1 (Dinu Li
TTITLE9=patti 1947)
TTITLE10=Sonate pour piano en si mineur op. 58 n° 3 - Allegro Maestoso
TTITLE10=(Dinu Lipatti 1947)
TTITLE11=Sonate pour piano en si mineur op. 58 n° 3 - Scherzo - molto 
TTITLE11=vivace (Dinu Lipatti 1947)
TTITLE12=Sonate pour piano en si mineur op. 58 n° 3 - Largo (Dinu Lipa
TTITLE12=tti 1947)
TTITLE13=Sonate pour piano en si mineur op. 58 n° 3 - Finale - presto 
TTITLE13=non tanto (Dinu Lipatti 1947)
EXTD=
EXTT0=
EXTT1=
EXTT2=
EXTT3=
EXTT4=
EXTT5=
EXTT6=
EXTT7=
EXTT8=
EXTT9=
EXTT10=
EXTT11=
EXTT12=
EXTT13=
PLAYORDER=
